<svg width="22" height="15" viewBox="0 0 22 15" fill="none" xmlns="http://www.w3.org/2000/svg">
<path fill-rule="evenodd" clip-rule="evenodd" d="M12.7363 0.708496H2.31961C1.36077 0.708496 0.583496 1.48577 0.583496 2.44461V12.8613C0.583496 13.8198 1.36077 14.5974 2.31961 14.5974H12.7363C13.6951 14.5974 14.4724 13.8201 14.4724 12.8613V2.44461C14.4724 1.48577 13.6948 0.708496 12.7363 0.708496ZM10.4213 8.48872H8.36331V10.5142C8.36331 11.0278 8.00886 11.4148 7.52781 11.4148C7.04785 11.4148 6.69231 11.0263 6.69231 10.5793V8.48872H4.60174C4.15433 8.48872 3.76623 8.13426 3.76623 7.65322C3.76623 7.17362 4.15469 6.81771 4.60174 6.81771H6.65975V4.72715C6.65975 4.27865 7.04676 3.89164 7.52781 3.89164C8.00886 3.89164 8.36331 4.2801 8.36331 4.72715V6.78516H10.4213C10.9024 6.78516 11.2894 7.17217 11.2894 7.65322C11.2894 8.13426 10.9024 8.48872 10.4213 8.48872ZM15.6299 4.80681L19.594 2.07244C20.3644 1.54545 21.417 2.0869 21.417 3.0056V12.2974C21.417 13.2197 20.3608 13.7586 19.594 13.2302L15.6299 10.4998V4.80681Z" fill="white"/>
</svg>
