<svg width="26" height="20" viewBox="0 0 26 20" fill="none" xmlns="http://www.w3.org/2000/svg">
<path fill-rule="evenodd" clip-rule="evenodd" d="M9.25 10C12.0117 10 14.25 7.76133 14.25 5C14.25 2.23867 12.0117 0 9.25 0C6.48829 0 4.25 2.23867 4.25 5C4.25 7.76133 6.48829 10 9.25 10ZM11.2305 11.875H7.26953C3.53164 11.875 0.5 14.9063 0.5 18.6445C0.5 19.3945 1.10625 20 1.85391 20H16.6469C17.3945 20 18 19.3945 18 18.6445C18 14.9063 14.9688 11.875 11.2305 11.875ZM22.6875 7.81249H24.5625C25.082 7.81249 25.5 8.23046 25.5 8.74999C25.5 9.26952 25.082 9.68749 24.5625 9.68749H22.6875V11.5625C22.6875 12.0801 22.2656 12.5 21.75 12.5C21.2344 12.5 20.8125 12.082 20.8125 11.5625V9.68749H18.9375C18.4199 9.68749 18 9.26562 18 8.74999C18 8.23437 18.4219 7.81249 18.9375 7.81249H20.8125V5.93749C20.8125 5.41991 21.2305 4.99999 21.75 4.99999C22.2695 4.99999 22.6875 5.42187 22.6875 5.93749V7.81249Z" fill="#FCFCFD"/>
</svg>
