<svg width="10" height="6" viewBox="0 0 10 6" fill="none" xmlns="http://www.w3.org/2000/svg">
<path fill-rule="evenodd" clip-rule="evenodd" d="M9.16654 0.641739C8.84154 0.318639 8.31663 0.318639 7.99154 0.641739L4.99988 3.59174L2.04992 0.641739C1.72488 0.318639 1.19995 0.318639 0.874918 0.641739C0.71716 0.798214 0.628418 1.01121 0.628418 1.23341C0.628418 1.45557 0.71716 1.66857 0.874918 1.82507L4.40821 5.35841C4.56471 5.51616 4.77771 5.60491 4.99988 5.60491C5.22213 5.60491 5.43513 5.51616 5.59154 5.35841L9.16654 1.82507C9.32438 1.66857 9.41304 1.45557 9.41304 1.23341C9.41304 1.01121 9.32438 0.798214 9.16654 0.641739Z" fill="#90979E"/>
</svg>
