<svg width="14" height="15" viewBox="0 0 14 15" fill="none" xmlns="http://www.w3.org/2000/svg">
<path fill-rule="evenodd" clip-rule="evenodd" d="M12.8152 9.81406L8.63365 7.39974L12.8152 4.98543C13.2535 4.73217 13.4035 4.17168 13.1505 3.73331C12.8974 3.29493 12.3371 3.14456 11.8985 3.39738L7.7167 5.81189V0.983073C7.7167 0.476816 7.30631 0.0664062 6.80004 0.0664062C6.29376 0.0664062 5.88337 0.476816 5.88337 0.983073V5.81189L1.70155 3.39735C1.26305 3.14454 0.702635 3.29491 0.449598 3.73328C0.196562 4.17165 0.346648 4.73214 0.784888 4.9854L4.96644 7.39974L0.784888 9.81406C0.346648 10.0673 0.196562 10.6278 0.449598 11.0661C0.702635 11.5046 1.26305 11.6549 1.70155 11.4021L5.88337 8.98759V13.8164C5.88337 14.3227 6.29376 14.7331 6.80004 14.7331C7.30631 14.7331 7.7167 14.3227 7.7167 13.8164V8.98759L11.8985 11.4021C12.3371 11.6549 12.8974 11.5046 13.1505 11.0662C13.4035 10.6279 13.2535 10.0673 12.8152 9.81406Z" fill="white"/>
</svg>
