<svg width="18" height="20" viewBox="0 0 18 20" fill="none" xmlns="http://www.w3.org/2000/svg">
<path fill-rule="evenodd" clip-rule="evenodd" d="M9 4.33984C9.86289 4.33984 10.5625 3.64141 10.5625 2.77852C10.5625 1.91563 9 0 9 0C9 0 7.4375 1.94961 7.4375 2.8125C7.4375 3.67539 8.13672 4.33984 9 4.33984ZM14 4.33984C14.8629 4.33984 15.5625 3.64141 15.5625 2.77852C15.5625 1.91563 14 0 14 0C14 0 12.4375 1.94961 12.4375 2.8125C12.4375 3.67539 13.1367 4.33984 14 4.33984ZM15.25 6.25L15.2148 8.71484C16.6289 8.71484 17.75 9.86719 17.75 11.2148V13.8973C17.3668 14.1357 16.9145 14.3398 16.5 14.3398C15.6953 14.3398 14.707 13.6055 14.441 13.2723C14.1969 13.0293 13.8027 13.0293 13.5586 13.2723C13.2598 13.5691 12.3047 14.3398 11.5 14.3398C10.6953 14.3398 9.70703 13.6055 9.44102 13.2723C9.19687 13.0293 8.80273 13.0293 8.55859 13.2723C8.25976 13.5691 7.30469 14.3398 6.5 14.3398C5.69531 14.3398 4.70703 13.6055 4.44102 13.2723C4.19687 13.0293 3.80273 13.0293 3.55859 13.2723C3.25977 13.5691 2.30625 14.3398 1.5 14.3398C1.08555 14.3398 0.633359 14.1356 0.25 13.8973V11.2137C0.25 9.86797 1.36914 8.74883 2.75 8.74883V6.25C2.75 5.90625 3.02969 5.625 3.375 5.625H4.625C4.97016 5.625 5.25 5.90484 5.25 6.25V8.75H7.75V6.25C7.75 5.90625 8.03125 5.625 8.375 5.625H9.625C9.97016 5.625 10.25 5.90484 10.25 6.25V8.75H12.75V6.25C12.75 5.90625 13.0312 5.625 13.375 5.625H14.625C14.9702 5.625 15.25 5.90484 15.25 6.25ZM14 14.582C13.4629 15.0098 12.5145 15.6234 11.5 15.6234C10.4855 15.6234 9.53711 15.0102 9 14.582C8.46289 15.0098 7.51445 15.6234 6.5 15.6234C5.48555 15.6234 4.53711 15.0102 4 14.582C3.46289 15.0098 2.51445 15.6234 1.5 15.6234C1.05977 15.6234 0.637109 15.5015 0.25 15.3353V18.7486C0.25 19.4414 0.809766 20 1.5 20H16.5C17.1902 20 17.75 19.4402 17.75 18.75V15.3367C17.3629 15.503 16.9402 15.6249 16.5 15.6249C15.4844 15.5898 14.5391 15.0117 14 14.582ZM5.5625 2.77852C5.5625 3.64141 4.86289 4.33984 4 4.33984C3.13711 4.33984 2.4375 3.67539 2.4375 2.8125C2.4375 1.94961 4 0 4 0C4 0 5.5625 1.91563 5.5625 2.77852Z" fill="white"/>
</svg>
