<svg width="18" height="20" viewBox="0 0 18 20" fill="none" xmlns="http://www.w3.org/2000/svg">
<path fill-rule="evenodd" clip-rule="evenodd" d="M14 2.5H15.875C16.9102 2.5 17.75 3.33945 17.75 4.375V6.25H0.25V4.375C0.25 3.33945 1.08945 2.5 2.125 2.5H4V1.21484C4 0.5625 4.5625 0 5.25 0C5.9375 0 6.5 0.5625 6.5 1.21484V2.5H11.5V1.21484C11.5 0.5625 12.0625 0 12.75 0C13.4375 0 14 0.5625 14 1.21484V2.5ZM0.25 18.125C0.25 19.1602 1.08984 20 2.125 20H15.875C16.9102 20 17.75 19.1602 17.75 18.125V7.5H0.25V18.125ZM2.75 10.625C2.75 10.2852 3.0332 10 3.375 10H7.125C7.46875 10 7.75 10.2852 7.75 10.625V14.375C7.75 14.7188 7.46875 15 7.125 15H3.375C3.0332 15 2.75 14.7188 2.75 14.375V10.625Z" fill="#0A1F44"/>
</svg>
