<svg width="22" height="22" viewBox="0 0 22 22" fill="none" xmlns="http://www.w3.org/2000/svg">
<path fill-rule="evenodd" clip-rule="evenodd" d="M13.3498 11.0005L20.5165 3.85048C21.1702 3.19693 21.1702 2.13735 20.5165 1.48381C19.863 0.830265 18.8035 0.830265 18.1498 1.48381L10.9998 8.6505L3.8499 1.48381C3.19637 0.830265 2.13677 0.830265 1.48323 1.48381C0.829701 2.13735 0.829701 3.19693 1.48323 3.85048L8.64983 11.0005L1.48323 18.1505C1.16772 18.4635 0.990234 18.8893 0.990234 19.3338C0.990234 19.7782 1.16772 20.2042 1.48323 20.5172C1.79618 20.8327 2.22217 21.0102 2.66657 21.0102C3.11097 21.0102 3.53695 20.8327 3.8499 20.5172L10.9998 13.3505L18.1498 20.5172C18.4628 20.8327 18.8888 21.0102 19.3332 21.0102C19.7777 21.0102 20.2037 20.8327 20.5165 20.5172C20.8322 20.2042 21.0095 19.7782 21.0095 19.3338C21.0095 18.8893 20.8322 18.4635 20.5165 18.1505L13.3498 11.0005Z" fill="white"/>
</svg>
