<svg width="20" height="20" viewBox="0 0 20 20" fill="none" xmlns="http://www.w3.org/2000/svg">
<path fill-rule="evenodd" clip-rule="evenodd" d="M7.18709 6.24943C7.3995 6.24943 7.61166 6.17865 7.78743 6.03218C9.19238 4.86041 9.99894 3.13948 9.99894 1.30996V0.937414C9.99894 0.419883 9.57906 0 9.09668 0C8.6143 0 8.19442 0.419883 8.19442 0.937414V1.30968C8.19442 2.58144 7.63432 3.77782 6.65667 4.5918C6.18718 4.92533 6.13641 5.51512 6.46841 5.91352C6.65199 6.13615 6.91759 6.24943 7.18709 6.24943ZM4.73374 7.52685C5.14777 7.44092 5.58132 7.56591 5.88208 7.86666L12.1336 14.1161C12.4339 14.4165 12.5608 14.85 12.4717 15.2648C12.3815 15.68 12.0874 16.0217 11.6894 16.1706L10.1368 16.7526L3.24677 9.86257L3.82797 8.3092C3.97717 7.91134 4.31894 7.61715 4.73374 7.52685ZM1.88362 13.4988L6.50038 18.1155L8.85094 17.234L2.76518 11.1474L1.88362 13.4988ZM0.0795495 18.3069C-0.0925441 18.7659 0.0197503 19.2834 0.366398 19.6303C0.604306 19.8693 0.924198 19.9982 1.24995 19.9982C1.39763 19.9982 1.54656 19.9726 1.68936 19.9189L5.21443 18.5971L1.40111 14.7838L0.0795495 18.3069ZM3.7145 1.24989C3.7145 1.9049 3.18994 2.46462 2.49977 2.46462C1.8096 2.46462 1.24989 1.94006 1.24989 1.24989C1.24989 0.559714 1.84436 0.035153 2.49977 0.035153C3.15518 0.035153 3.7145 0.559714 3.7145 1.24989ZM19.0256 9.99908H18.6533C16.8578 9.99908 15.1392 10.8076 13.9675 12.2098C13.6355 12.6078 13.6892 13.1984 14.0871 13.5304C14.2604 13.6784 14.4752 13.7487 14.651 13.7487C14.9195 13.7487 15.1857 13.634 15.3712 13.4119C16.2212 12.4325 17.4164 11.8739 18.6897 11.8739H19.062C19.5795 11.8739 19.9642 11.454 19.9642 10.9365C19.9642 10.419 19.5763 9.99908 19.0256 9.99908ZM15.9343 4.31657C15.978 4.99268 16.037 5.91916 15.2215 6.87493C14.4012 7.83187 13.4794 7.9139 12.769 7.97225C12.1905 8.02459 11.9208 8.06255 11.6144 8.42143C11.4288 8.63867 11.1664 8.74976 10.9016 8.74976C10.7219 8.74976 10.5031 8.67554 10.3274 8.52712C9.93289 8.19121 9.88993 7.59752 10.226 7.20326C11.0421 6.24793 11.966 6.16594 12.6397 6.10614L12.6402 6.10609C13.2199 6.05375 13.4896 6.01579 13.796 5.65692C14.1048 5.29562 14.1011 5.02221 14.0633 4.4375C14.0195 3.76139 13.9606 2.83491 14.7761 1.87914C15.593 0.923984 16.5164 0.840371 17.19 0.779373L17.1915 0.77924C17.7727 0.726901 18.0424 0.688975 18.35 0.328891C18.689 -0.0653697 19.28 -0.10685 19.6718 0.22515C20.066 0.561838 20.1112 1.15397 19.7755 1.5469C18.9586 2.50206 18.0352 2.58567 17.3616 2.64667L17.3601 2.6468C16.7789 2.69914 16.5092 2.73707 16.2016 3.09715C15.8928 3.45845 15.8965 3.73186 15.9343 4.31657ZM18.7131 16.2485C18.023 16.2485 17.4984 16.8082 17.4984 17.4632C17.4984 18.1534 18.0581 18.678 18.7131 18.678C19.3681 18.678 19.9279 18.1183 19.9279 17.4632C19.963 16.807 19.4396 16.2485 18.7131 16.2485ZM17.4984 6.21427C17.4984 5.55925 18.023 4.99954 18.7131 4.99954C19.4396 4.99954 19.963 5.55808 19.9279 6.21427C19.9279 6.86929 19.3681 7.429 18.7131 7.429C18.0581 7.429 17.4984 6.90444 17.4984 6.21427Z" fill="white"/>
</svg>
