<svg width="64" height="72" viewBox="0 0 64 72" fill="none" xmlns="http://www.w3.org/2000/svg">
<path fill-rule="evenodd" clip-rule="evenodd" d="M45.5 4.50056H61.25C62.4875 4.50056 63.5 5.50744 63.5 6.75056V11.2506C63.5 12.4931 62.4928 13.5006 61.25 13.5006H2.75C1.50744 13.5006 0.5 12.4931 0.5 11.2506V6.75056C0.5 5.50772 1.50744 4.50056 2.75 4.50056H18.5L20.1298 1.24369C20.5109 0.4815 21.2899 0 22.1422 0H41.8592C42.7114 0 43.4906 0.4815 43.8716 1.24369L45.5 4.50056ZM5 65.2502C5 68.9767 8.02344 72.0002 11.75 72.0002H52.25C55.9766 72.0002 59 68.9767 59 65.2502V18.0002H5V65.2502ZM43.25 29.2502C43.25 27.9986 44.2484 27.0002 45.5 27.0002C46.7516 27.0002 47.75 28.0021 47.75 29.2502V60.7502C47.75 61.9982 46.748 63.0002 45.5 63.0002C44.252 63.0002 43.25 61.9982 43.25 60.7502V29.2502ZM32 27.0002C30.7484 27.0002 29.75 27.9986 29.75 29.2502V60.7502C29.75 61.9982 30.752 63.0002 32 63.0002C33.248 63.0002 34.25 61.9982 34.25 60.7502V29.2502C34.25 28.0021 33.2516 27.0002 32 27.0002ZM16.25 29.2502C16.25 27.9986 17.2484 27.0002 18.5 27.0002C19.7516 27.0002 20.75 28.0021 20.75 29.2502V60.7502C20.75 62.0018 19.7516 63.0002 18.5 63.0002C17.2484 63.0002 16.25 61.9982 16.25 60.7502V29.2502Z" fill="#F03738"/>
</svg>
