<svg width="22" height="22" viewBox="0 0 22 22" fill="none" xmlns="http://www.w3.org/2000/svg">
<path fill-rule="evenodd" clip-rule="evenodd" d="M20.1147 5.79134H18.4001C18.8867 4.85873 19.0108 3.73446 18.3984 2.47917C17.8117 1.27433 16.5584 0.582374 15.2116 0.583008C13.5107 0.583644 12.4121 1.45052 11.0002 3.36214C9.58822 1.45052 8.48958 0.583644 6.78874 0.583008C5.44189 0.582374 4.18945 1.27433 3.60189 2.47917C2.9895 3.73446 3.11361 4.85954 3.60067 5.79134H1.88558C1.16659 5.79134 0.583496 6.37443 0.583496 7.09343V9.69759C0.583496 10.4137 1.16943 10.9985 1.84896 10.9985H20.0781C20.7943 10.9985 21.3802 10.4137 21.3802 9.69759V7.09343C21.4168 6.37321 20.835 5.79134 20.1147 5.79134ZM1.88558 20.1143C1.88558 20.8345 2.46785 21.4163 3.18766 21.4163H9.69808V12.3018H1.88558V20.1143ZM5.21814 4.16374C5.21814 5.06258 5.9469 5.79134 6.84574 5.79134H10.3492C8.25362 2.67041 7.65548 2.53613 6.84574 2.53613C5.9469 2.53613 5.21814 3.26489 5.21814 4.16374ZM15.1546 5.79134H11.6512C13.7467 2.67041 14.3445 2.53613 15.1542 2.53613C16.0531 2.53613 16.7818 3.26489 16.7818 4.16374C16.7818 5.06258 16.0539 5.79134 15.1546 5.79134ZM18.8127 21.4163H12.3022L12.3389 12.3018H20.1147L20.1147 20.1143C20.1147 20.8345 19.5325 21.4163 18.8127 21.4163Z" fill="#FA4A0C"/>
</svg>
