<svg width="16" height="16" viewBox="0 0 16 16" fill="none" xmlns="http://www.w3.org/2000/svg">
<path fill-rule="evenodd" clip-rule="evenodd" d="M8 0.5C3.85742 0.5 0.5 3.85742 0.5 8C0.5 12.1426 3.85742 15.5 8 15.5C12.1426 15.5 15.5 12.1426 15.5 8C15.5 3.85742 12.1426 0.5 8 0.5ZM8 4.25C8.51768 4.25 8.9375 4.66982 8.9375 5.1875C8.9375 5.70518 8.51768 6.125 8 6.125C7.48232 6.125 7.0625 5.70605 7.0625 5.1875C7.0625 4.66895 7.48145 4.25 8 4.25ZM6.125 11.0469C6.125 11.4365 6.44141 11.75 6.82812 11.75H9.17188C9.56152 11.75 9.875 11.4351 9.875 11.0469C9.875 10.6587 9.56006 10.3438 9.17188 10.3438H8.70312V7.76562C8.70312 7.37744 8.38818 7.0625 8 7.0625H7.0625C6.67578 7.0625 6.35938 7.37744 6.35938 7.76562C6.35938 8.15381 6.67432 8.46875 7.0625 8.46875H7.29688V10.3438H6.82812C6.43994 10.3438 6.125 10.6572 6.125 11.0469Z" fill="white"/>
</svg>
