<svg width="18" height="18" viewBox="0 0 18 18" fill="none" xmlns="http://www.w3.org/2000/svg">
<path d="M17.3039 12.6169C17.3039 14.055 15.9048 15.221 14.2082 15.221C12.5116 15.221 11.1125 14.055 11.1125 12.6462C11.1125 11.208 12.5116 10.0713 14.2082 10.0713C14.5754 10.0713 14.9227 10.1338 15.2502 10.2307V5.48796L6.9165 7.95866L6.91643 14.7327C6.88721 16.1683 5.51676 17.3337 3.76221 17.3337C2.00765 17.3337 0.666504 16.1683 0.666504 14.7295C0.666504 13.2913 2.06559 12.1546 3.76221 12.1546C4.12939 12.1546 4.47673 12.2171 4.80387 12.3141V4.78483C4.80387 4.36263 5.13135 3.91797 5.53337 3.79134L15.9207 0.715495C16.0343 0.688525 16.2036 0.666992 16.2915 0.666992C16.8664 0.666992 17.3322 1.13379 17.3332 1.70833L17.3039 12.6169Z" fill="#B57BFF"/>
<path d="M17.3039 12.6169C17.3039 14.055 15.9048 15.221 14.2082 15.221C12.5116 15.221 11.1125 14.055 11.1125 12.6462C11.1125 11.208 12.5116 10.0713 14.2082 10.0713C14.5754 10.0713 14.9227 10.1338 15.2502 10.2307V5.48796L6.9165 7.95866L6.91643 14.7327C6.88721 16.1683 5.51676 17.3337 3.76221 17.3337C2.00765 17.3337 0.666504 16.1683 0.666504 14.7295C0.666504 13.2913 2.06559 12.1546 3.76221 12.1546C4.12939 12.1546 4.47673 12.2171 4.80387 12.3141V4.78483C4.80387 4.36263 5.13135 3.91797 5.53337 3.79134L15.9207 0.715495C16.0343 0.688525 16.2036 0.666992 16.2915 0.666992C16.8664 0.666992 17.3322 1.13379 17.3332 1.70833L17.3039 12.6169Z" fill="black" fill-opacity="0.25"/>
</svg>
