<svg width="18" height="18" viewBox="0 0 18 18" fill="none" xmlns="http://www.w3.org/2000/svg">
<path fill-rule="evenodd" clip-rule="evenodd" d="M15.9502 6.76666L4.28355 0.93333C3.34025 0.463838 2.20384 0.636188 1.44215 1.36425C0.68048 2.09233 0.457063 3.21981 0.883546 4.18333L2.88355 8.65829C2.97522 8.87687 2.97522 9.12312 2.88355 9.34162L0.883546 13.8166C0.539338 14.59 0.609763 15.4849 1.0707 16.1948C1.53163 16.9046 2.32046 17.3331 3.16688 17.3333C3.55707 17.3295 3.94145 17.2383 4.29188 17.0666L15.9585 11.2333C16.8025 10.8088 17.335 9.94471 17.335 8.99996C17.335 8.05529 16.8025 7.19122 15.9585 6.76666H15.9502ZM15.2085 9.74162L3.54189 15.575C3.22815 15.7256 2.85384 15.6655 2.60314 15.424C2.35245 15.1826 2.27819 14.8109 2.41689 14.4916L4.40855 10.0166C4.43434 9.95687 4.45659 9.8957 4.47522 9.83329H10.2169C10.6771 9.83329 11.0502 9.4602 11.0502 8.99995C11.0502 8.53978 10.6771 8.16662 10.2169 8.16662H4.47522C4.45659 8.10429 4.43434 8.04312 4.40855 7.98328L2.41689 3.50833C2.27819 3.18913 2.35245 2.81735 2.60314 2.57595C2.85384 2.33454 3.22815 2.27435 3.54189 2.42499L15.2085 8.25828C15.4869 8.40087 15.662 8.68729 15.662 8.99995C15.662 9.3127 15.4869 9.59912 15.2085 9.74162Z" fill="white"/>
</svg>
