<svg width="18" height="14" viewBox="0 0 18 14" fill="none" xmlns="http://www.w3.org/2000/svg">
<path fill-rule="evenodd" clip-rule="evenodd" d="M9.83325 3.66634C9.83325 5.50723 8.34106 6.99967 6.49992 6.99967C4.65877 6.99967 3.16659 5.50723 3.16659 3.66634C3.16659 1.82546 4.65877 0.333008 6.49992 0.333008C8.34106 0.333008 9.83325 1.82546 9.83325 3.66634ZM5.17952 8.25H7.82015C10.3123 8.25 12.3332 10.2708 12.3332 12.763C12.3332 13.263 11.9295 13.6667 11.4295 13.6667H1.56911C1.07067 13.6667 0.666504 13.263 0.666504 12.763C0.666504 10.2708 2.68656 8.25 5.17952 8.25ZM13.143 8.66634H11.2198C12.4164 9.64811 13.1664 11.1169 13.1664 12.7627C13.1664 13.096 13.0675 13.4033 12.906 13.6663H16.4998C16.9607 13.6663 17.3331 13.2913 17.3331 12.8096C17.3331 10.5309 15.4685 8.66634 13.143 8.66634ZM14.8332 4.08317C14.8332 5.69515 13.5285 6.99984 11.9165 6.99984C11.104 6.99984 10.3722 6.6665 9.84383 6.13291C10.3558 5.44098 10.6665 4.5915 10.6665 3.6665C10.6665 2.97379 10.479 2.32874 10.179 1.7527C10.6654 1.38929 11.2626 1.1665 11.9165 1.1665C13.5285 1.1665 14.8332 2.47119 14.8332 4.08317Z" fill="#FA9330"/>
</svg>
